<?xml version="1.0" standalone="no"?>
<!DOCTYPE svg PUBLIC "-//W3C//DTD SVG 20010904//EN"
 "http://www.w3.org/TR/2001/REC-SVG-20010904/DTD/svg10.dtd">
<svg version="1.0" xmlns="http://www.w3.org/2000/svg"
 width="500.000000pt" height="500.000000pt" viewBox="0 0 500.000000 500.000000"
 preserveAspectRatio="xMidYMid meet">
<metadata>
Created by potrace 1.11, written by Peter Selinger 2001-2013
</metadata>
<g transform="translate(0.000000,500.000000) scale(0.100000,-0.100000)"
fill="#000000" stroke="none">
<path d="M1845 3571 c-11 -5 -29 -19 -40 -31 -20 -22 -20 -38 -22 -859 -1
-507 2 -856 8 -886 34 -178 188 -331 366 -365 115 -21 247 5 344 70 24 16 90
74 146 129 56 56 105 101 109 101 4 0 73 -66 153 -146 80 -80 157 -150 171
-156 77 -30 161 55 132 133 -6 13 -75 90 -156 170 -80 80 -146 150 -146 155 0
5 44 52 97 104 53 52 111 116 129 143 93 135 107 311 35 462 -136 287 -516
352 -742 126 -156 -157 -181 -399 -59 -583 17 -25 75 -91 130 -145 55 -55 100
-104 100 -108 0 -17 -208 -212 -246 -230 -54 -27 -165 -27 -218 -1 -47 24 -98
75 -123 124 -17 35 -18 89 -23 889 l-5 853 -25 24 c-27 27 -84 40 -115 27z
m1012 -945 c58 -27 103 -70 130 -124 25 -51 24 -163 -2 -217 -19 -38 -213
-245 -230 -245 -17 0 -212 208 -230 246 -14 28 -19 61 -19 115 -1 71 2 81 33
125 77 114 203 153 318 100z"/>
</g>
</svg>
